<svg xmlns="http://www.w3.org/2000/svg" viewBox="0 0 500 500"><g id="freepik--background-simple--inject-111"><path d="M223.21,84.43C243,82.13,262.68,85.68,279,98.14c19.6,15,25.07,37.84,30.57,60.48,5,20.54,15.69,35.79,34.55,45.75,24.73,13.06,48.81,33.13,56.05,61.27,7.05,27.35-.77,60.95-23,79.38-20.58,17.08-49.35,19.07-76,20.68-34.82,2.11-69.91,4.86-104.47.07-22.7-3.15-45.56-9.86-63.47-24.15-19.78-15.78-32-39.86-36.22-64.81s-1-50.72,6-75c8.89-30.83,24.23-60.32,47.48-82.44C168.72,101.91,196,87.6,223.21,84.43Z" style="fill:#407BFF"></path><path d="M223.21,84.43C243,82.13,262.68,85.68,279,98.14c19.6,15,25.07,37.84,30.57,60.48,5,20.54,15.69,35.79,34.55,45.75,24.73,13.06,48.81,33.13,56.05,61.27,7.05,27.35-.77,60.95-23,79.38-20.58,17.08-49.35,19.07-76,20.68-34.82,2.11-69.91,4.86-104.47.07-22.7-3.15-45.56-9.86-63.47-24.15-19.78-15.78-32-39.86-36.22-64.81s-1-50.72,6-75c8.89-30.83,24.23-60.32,47.48-82.44C168.72,101.91,196,87.6,223.21,84.43Z" style="fill:#fff;opacity:0.9"></path></g><g id="freepik--Shadow--inject-111"><ellipse id="freepik--path--inject-111" cx="250" cy="416.24" rx="193.89" ry="11.32" style="fill:#f5f5f5"></ellipse></g><g id="freepik--Plant--inject-111"><path d="M133.19,386.82c0-.32-1.1-32.64-6.34-37.73-5-4.91-10.88-.18-11.12,0l-.64-.77c.06-.06,6.76-5.52,12.46,0,5.52,5.37,6.6,37.07,6.64,38.42Z" style="fill:#407BFF"></path><path d="M133.64,393.19c-.15-1.58-3.6-38.88,10.47-55l.75.65c-13.78,15.83-10.26,53.89-10.22,54.27Z" style="fill:#407BFF"></path><path d="M133.3,389.12l-1-.07c0-.44,2.75-43.67-7.52-53.12l.67-.73C136.07,345,133.42,387.32,133.3,389.12Z" style="fill:#407BFF"></path><path d="M134.64,389.09h-1c0-1.2.34-29.28,8.35-33.87a5.73,5.73,0,0,1,5.23-.51c4.86,2,7.25,10.62,7.35,11l-1,.27c0-.09-2.37-8.51-6.77-10.33a4.75,4.75,0,0,0-4.35.45C135,360.38,134.64,388.8,134.64,389.09Z" style="fill:#407BFF"></path><path d="M131.54,389.11l-1-.06c0-.22,1.2-22.12-4.7-29.82q-2.13-2.78-4.56-2.62c-3.83.27-7.06,5.9-7.09,6l-.88-.49c.15-.25,3.53-6.16,7.9-6.47,2-.15,3.79.88,5.42,3C132.76,366.61,131.59,388.2,131.54,389.11Z" style="fill:#407BFF"></path><path d="M132.66,392.1c-.16-2.13-3.87-52.25,2.67-61.11l.81.6c-6.33,8.55-2.52,59.91-2.48,60.43Z" style="fill:#407BFF"></path><path d="M149,359.86s-3.91,1.44-2.75,4.85,13.54,9,13.54,9,5.19-4.75.43-12.48S149.07,357.42,149,359.86Z" style="fill:#407BFF"></path><path d="M149,359.86s-3.91,1.44-2.75,4.85,13.54,9,13.54,9,5.19-4.75.43-12.48S149.07,357.42,149,359.86Z" style="fill:#fff;opacity:0.2;isolation:isolate"></path><path d="M131.94,353.37s4.17-.17,4.41,3.42-9,13.53-9,13.53-6.62-2.39-5.2-11.35S130.91,351.16,131.94,353.37Z" style="fill:#407BFF"></path><path d="M131.94,353.37s4.17-.17,4.41,3.42-9,13.53-9,13.53-6.62-2.39-5.2-11.35S130.91,351.16,131.94,353.37Z" style="fill:#fff;opacity:0.2;isolation:isolate"></path><path d="M128.41,336.17s2.78-.3,2.56-2-10.81-6.05-17,1c0,0,4,6.86,9.78,6.95S128.41,336.17,128.41,336.17Z" style="fill:#407BFF"></path><path d="M128.41,336.17s2.78-.3,2.56-2-10.81-6.05-17,1c0,0,4,6.86,9.78,6.95S128.41,336.17,128.41,336.17Z" style="fill:#fff;opacity:0.2;isolation:isolate"></path><path d="M133.59,332.06s-2.51,1.22-3.22-.34,6-10.85,15-8.17c0,0,.24,7.94-4.61,11.08S133.59,332.06,133.59,332.06Z" style="fill:#407BFF"></path><path d="M133.59,332.06s-2.51,1.22-3.22-.34,6-10.85,15-8.17c0,0,.24,7.94-4.61,11.08S133.59,332.06,133.59,332.06Z" style="fill:#fff;opacity:0.2;isolation:isolate"></path><path d="M120.43,358.49s1.92-1.55-.15-2.31-12.23-.54-12.33,9.52c0,0,11.83,2,13.29-1.86S120.43,358.49,120.43,358.49Z" style="fill:#407BFF"></path><path d="M120.43,358.49s1.92-1.55-.15-2.31-12.23-.54-12.33,9.52c0,0,11.83,2,13.29-1.86S120.43,358.49,120.43,358.49Z" style="fill:#fff;opacity:0.2;isolation:isolate"></path><path d="M144.56,335.92s-1.92-1.55.15-2.3,12.23-.55,12.33,9.52c0,0-11.83,2-13.29-1.87S144.56,335.92,144.56,335.92Z" style="fill:#407BFF"></path><path d="M144.56,335.92s-1.92-1.55.15-2.3,12.23-.55,12.33,9.52c0,0-11.83,2-13.29-1.87S144.56,335.92,144.56,335.92Z" style="fill:#fff;opacity:0.2;isolation:isolate"></path><path d="M138.3,344s-.17-1.89,1.35-1.15,6.82,6.45,1.33,11.87c0,0-7.39-5.47-6.06-8.32S138.3,344,138.3,344Z" style="fill:#407BFF"></path><path d="M138.3,344s-.17-1.89,1.35-1.15,6.82,6.45,1.33,11.87c0,0-7.39-5.47-6.06-8.32S138.3,344,138.3,344Z" style="fill:#fff;opacity:0.2;isolation:isolate"></path><path d="M118.72,346.71s1.14-1.5-.54-1.69-9.2,1.82-7.45,9.34c0,0,9.17-.69,9.56-3.81S118.72,346.71,118.72,346.71Z" style="fill:#407BFF"></path><path d="M118.72,346.71s1.14-1.5-.54-1.69-9.2,1.82-7.45,9.34c0,0,9.17-.69,9.56-3.81S118.72,346.71,118.72,346.71Z" style="fill:#fff;opacity:0.2;isolation:isolate"></path><polygon points="149.69 416.97 118.23 416.97 114.84 382.53 153.09 382.53 149.69 416.97" style="fill:#407BFF"></polygon><polygon points="149.69 416.97 118.23 416.97 114.84 382.53 153.09 382.53 149.69 416.97" style="fill:#fff;opacity:0.5;isolation:isolate"></polygon><rect x="113.16" y="378.73" width="41.61" height="7.6" style="fill:#407BFF"></rect><rect x="113.16" y="378.73" width="41.61" height="7.6" style="fill:#fff;opacity:0.2;isolation:isolate"></rect></g><g id="freepik--Screen--inject-111"><rect x="96.52" y="102.47" width="12.46" height="19.52" style="fill:#263238"></rect><rect x="96.52" y="102.47" width="12.46" height="19.52" style="fill:#fff;opacity:0.2"></rect><rect x="216.52" y="102.47" width="12.46" height="19.52" style="fill:#263238"></rect><rect x="216.52" y="102.47" width="12.46" height="19.52" style="fill:#fff;opacity:0.2"></rect><rect x="107.76" y="82.45" width="109.99" height="185.97" transform="translate(338.19 12.68) rotate(90)" style="fill:#263238"></rect><rect x="112.76" y="87.45" width="99.99" height="175.97" transform="translate(338.19 12.68) rotate(90)" style="fill:#407BFF"></rect><rect x="79.64" y="130.26" width="14.8" height="12.31" style="opacity:0.2;isolation:isolate"></rect><path d="M87.73,137.26l1.72,1.2.51-.36a.39.39,0,0,0,.07-.59l-1-1.14Z" style="fill:#fff"></path><path d="M91.27,133.56h-.45a1.37,1.37,0,0,0-.78.25l-2.15,1.52-4.8-.89a.65.65,0,0,0-.49.1l-.73.53,4.21,1.54-2,1.44-1.49,0a.86.86,0,0,0-.51.16l-.67.48,2,1.05,7.26-5.15,1.44-1,.58-.41A2.94,2.94,0,0,0,91.27,133.56Z" style="fill:#fff"></path><rect x="98.89" y="130.26" width="80.97" height="12.31" style="opacity:0.2;isolation:isolate"></rect><path d="M152.83,135.43H104.17a1,1,0,0,1,0-2h48.66a1,1,0,0,1,0,2Z" style="fill:#fff"></path><path d="M121.58,139.4H104.17a1,1,0,1,1,0-2h17.41a1,1,0,1,1,0,2Z" style="fill:#fff"></path><rect x="184.15" y="130.26" width="61.71" height="12.31" transform="translate(430.01 272.84) rotate(180)" style="opacity:0.4;isolation:isolate"></rect><path d="M196.89,136.05a2.25,2.25,0,0,1,2.37-2.27,2.22,2.22,0,0,1,1.74.74l-.53.5a1.54,1.54,0,0,0-1.18-.52,1.56,1.56,0,1,0,1.18,2.58l.53.51a2.23,2.23,0,0,1-1.75.74A2.26,2.26,0,0,1,196.89,136.05Z" style="fill:#fff"></path><path d="M204.57,137.24h-2.21l-.44,1h-.85l2-4.42h.81l2,4.42H205Zm-.28-.64-.83-1.94-.83,1.94Z" style="fill:#fff"></path><path d="M210.36,133.84v4.42h-.68l-2.44-3v3h-.81v-4.42h.67l2.44,3v-3Z" style="fill:#fff"></path><path d="M211.23,136.05a2.39,2.39,0,0,1,4.12-1.53l-.53.5a1.56,1.56,0,0,0-1.18-.52,1.56,1.56,0,1,0,0,3.11,1.53,1.53,0,0,0,1.18-.53l.53.51a2.39,2.39,0,0,1-4.12-1.54Z" style="fill:#fff"></path><path d="M219.45,137.58v.68h-3.31v-4.42h3.22v.69H217v1.15h2.13v.68H217v1.22Z" style="fill:#fff"></path><path d="M220.37,133.84h.82v3.73h2.31v.69h-3.13Z" style="fill:#fff"></path><path d="M227.47,137.58v.68h-3.32v-4.42h3.23v.69H225v1.15h2.14v.68H225v1.22Z" style="fill:#fff"></path><path d="M228.38,133.84h1.93a2.22,2.22,0,1,1,0,4.42h-1.93Zm1.9,3.73a1.52,1.52,0,1,0,0-3H229.2v3Z" style="fill:#fff"></path><rect x="79.64" y="145.77" width="14.8" height="12.31" style="opacity:0.2;isolation:isolate"></rect><path d="M87.73,152.77l1.72,1.2.51-.36A.39.39,0,0,0,90,153l-1-1.14Z" style="fill:#fff"></path><path d="M91.27,149.07h-.45a1.37,1.37,0,0,0-.78.25l-2.15,1.52-4.8-.89a.65.65,0,0,0-.49.1l-.73.53,4.21,1.54-2,1.44-1.49,0a.86.86,0,0,0-.51.16l-.67.48,2,1.05,7.26-5.15,1.44-1,.58-.41A2.94,2.94,0,0,0,91.27,149.07Z" style="fill:#fff"></path><rect x="98.89" y="145.77" width="80.97" height="12.31" style="opacity:0.2;isolation:isolate"></rect><path d="M152.83,151H104.17a1,1,0,0,1,0-2h48.66a1,1,0,0,1,0,2Z" style="fill:#fff"></path><path d="M121.58,154.91H104.17a1,1,0,1,1,0-2h17.41a1,1,0,1,1,0,2Z" style="fill:#fff"></path><rect x="184.15" y="145.77" width="61.71" height="12.31" transform="translate(430.01 303.86) rotate(180)" style="opacity:0.4;isolation:isolate"></rect><path d="M196.89,151.56a2.25,2.25,0,0,1,2.37-2.27A2.22,2.22,0,0,1,201,150l-.53.5a1.54,1.54,0,0,0-1.18-.52,1.56,1.56,0,1,0,1.18,2.58l.53.51a2.23,2.23,0,0,1-1.75.74A2.26,2.26,0,0,1,196.89,151.56Z" style="fill:#fff"></path><path d="M204.57,152.75h-2.21l-.44,1h-.85l2-4.42h.81l2,4.42H205Zm-.28-.64-.83-1.94-.83,1.94Z" style="fill:#fff"></path><path d="M210.36,149.35v4.42h-.68l-2.44-3v3h-.81v-4.42h.67l2.44,3v-3Z" style="fill:#fff"></path><path d="M211.23,151.56a2.39,2.39,0,0,1,4.12-1.53l-.53.5a1.56,1.56,0,0,0-1.18-.52,1.56,1.56,0,1,0,0,3.11,1.53,1.53,0,0,0,1.18-.53l.53.51a2.39,2.39,0,0,1-4.12-1.54Z" style="fill:#fff"></path><path d="M219.45,153.09v.68h-3.31v-4.42h3.22V150H217v1.15h2.13v.68H217v1.22Z" style="fill:#fff"></path><path d="M220.37,149.35h.82v3.73h2.31v.69h-3.13Z" style="fill:#fff"></path><path d="M227.47,153.09v.68h-3.32v-4.42h3.23V150H225v1.15h2.14v.68H225v1.22Z" style="fill:#fff"></path><path d="M228.38,149.35h1.93a2.22,2.22,0,1,1,0,4.42h-1.93Zm1.9,3.73a1.52,1.52,0,1,0,0-3H229.2v3Z" style="fill:#fff"></path><rect x="79.64" y="161.28" width="14.8" height="12.31" style="opacity:0.2;isolation:isolate"></rect><path d="M87.73,168.28l1.72,1.2.51-.36a.39.39,0,0,0,.07-.59l-1-1.14Z" style="fill:#fff"></path><path d="M91.27,164.58h-.45a1.37,1.37,0,0,0-.78.25l-2.15,1.52-4.8-.89a.65.65,0,0,0-.49.1l-.73.53,4.21,1.54-2,1.44-1.49,0a.86.86,0,0,0-.51.16l-.67.48,2,1,7.26-5.14,1.44-1,.58-.41A2.94,2.94,0,0,0,91.27,164.58Z" style="fill:#fff"></path><rect x="98.89" y="161.28" width="80.97" height="12.31" style="opacity:0.2;isolation:isolate"></rect><path d="M152.83,166.46H104.17a1,1,0,1,1,0-2h48.66a1,1,0,0,1,0,2Z" style="fill:#fff"></path><path d="M121.58,170.42H104.17a1,1,0,1,1,0-2h17.41a1,1,0,1,1,0,2Z" style="fill:#fff"></path><rect x="184.15" y="161.28" width="61.71" height="12.31" transform="translate(430.01 334.88) rotate(180)" style="opacity:0.4;isolation:isolate"></rect><path d="M199.76,164.86h1.93a2.22,2.22,0,1,1,0,4.43h-1.93Zm1.89,3.73a1.52,1.52,0,1,0,0-3h-1.07v3Z" style="fill:#fff"></path><path d="M208.29,168.6v.69H205v-4.43h3.23v.69h-2.41v1.15h2.14v.68h-2.14v1.22Z" style="fill:#fff"></path><path d="M209.2,164.86H210v3.73h2.31v.7H209.2Z" style="fill:#fff"></path><path d="M215.89,168.26h-2.21l-.44,1h-.85l2-4.43h.81l2,4.43h-.86Zm-.27-.64-.84-1.94-.83,1.94Z" style="fill:#fff"></path><path d="M219.39,167.72v1.57h-.82v-1.55l-1.74-2.88h.88L219,167l1.3-2.16h.81Z" style="fill:#fff"></path><path d="M224.91,168.6v.69H221.6v-4.43h3.22v.69h-2.4v1.15h2.13v.68h-2.13v1.22Z" style="fill:#fff"></path><path d="M225.83,164.86h1.93a2.22,2.22,0,1,1,0,4.43h-1.93Zm1.89,3.73a1.52,1.52,0,1,0,0-3h-1.07v3Z" style="fill:#fff"></path><rect x="79.64" y="176.79" width="14.8" height="12.31" style="opacity:0.2;isolation:isolate"></rect><path d="M87.73,183.79l1.72,1.2.51-.36A.39.39,0,0,0,90,184l-1-1.14Z" style="fill:#fff"></path><path d="M91.27,180.09h-.45a1.37,1.37,0,0,0-.78.25l-2.15,1.52-4.8-.89a.7.7,0,0,0-.49.1l-.73.53,4.21,1.54-2,1.44-1.49,0a.86.86,0,0,0-.51.16l-.67.48,2,1.05,7.26-5.14,1.44-1,.58-.41A2.94,2.94,0,0,0,91.27,180.09Z" style="fill:#fff"></path><rect x="98.89" y="176.79" width="80.97" height="12.31" style="opacity:0.2;isolation:isolate"></rect><path d="M152.83,182H104.17a1,1,0,1,1,0-2h48.66a1,1,0,0,1,0,2Z" style="fill:#fff"></path><path d="M121.58,185.93H104.17a1,1,0,0,1,0-2h17.41a1,1,0,0,1,0,2Z" style="fill:#fff"></path><rect x="184.15" y="176.79" width="61.71" height="12.31" transform="translate(430.01 365.9) rotate(180)" style="opacity:0.4;isolation:isolate"></rect><path d="M196.89,182.58a2.25,2.25,0,0,1,2.37-2.27,2.22,2.22,0,0,1,1.74.74l-.53.5a1.54,1.54,0,0,0-1.18-.52,1.56,1.56,0,1,0,1.18,2.58l.53.51a2.23,2.23,0,0,1-1.75.74A2.26,2.26,0,0,1,196.89,182.58Z" style="fill:#fff"></path><path d="M204.57,183.77h-2.21l-.44,1h-.85l2-4.43h.81l2,4.43H205Zm-.28-.64-.83-1.94-.83,1.94Z" style="fill:#fff"></path><path d="M210.36,180.37v4.43h-.68l-2.44-3v3h-.81v-4.43h.67l2.44,3v-3Z" style="fill:#fff"></path><path d="M211.23,182.58a2.39,2.39,0,0,1,4.12-1.53l-.53.5a1.56,1.56,0,0,0-1.18-.52,1.56,1.56,0,1,0,0,3.11,1.53,1.53,0,0,0,1.18-.53l.53.51a2.39,2.39,0,0,1-4.12-1.54Z" style="fill:#fff"></path><path d="M219.45,184.11v.69h-3.31v-4.43h3.22v.69H217v1.15h2.13v.68H217v1.22Z" style="fill:#fff"></path><path d="M220.37,180.37h.82v3.73h2.31v.7h-3.13Z" style="fill:#fff"></path><path d="M227.47,184.11v.69h-3.32v-4.43h3.23v.69H225v1.15h2.14v.68H225v1.22Z" style="fill:#fff"></path><path d="M228.38,180.37h1.93a2.22,2.22,0,1,1,0,4.43h-1.93Zm1.9,3.73a1.52,1.52,0,1,0,0-3H229.2v3Z" style="fill:#fff"></path><rect x="79.64" y="192.31" width="14.8" height="12.31" style="opacity:0.2;isolation:isolate"></rect><path d="M87.73,199.3l1.72,1.2.51-.36a.39.39,0,0,0,.07-.59l-1-1.14Z" style="fill:#fff"></path><path d="M91.27,195.6h-.45a1.37,1.37,0,0,0-.78.25l-2.15,1.52-4.8-.89a.66.66,0,0,0-.49.11l-.73.52,4.21,1.54-2,1.44-1.49,0a.86.86,0,0,0-.51.16l-.67.48,2,1.05,7.26-5.14,1.44-1,.58-.41A2.94,2.94,0,0,0,91.27,195.6Z" style="fill:#fff"></path><rect x="98.89" y="192.31" width="80.97" height="12.31" style="opacity:0.2;isolation:isolate"></rect><path d="M152.83,197.48H104.17a1,1,0,1,1,0-2h48.66a1,1,0,0,1,0,2Z" style="fill:#fff"></path><path d="M121.58,201.44H104.17a1,1,0,0,1,0-2h17.41a1,1,0,0,1,0,2Z" style="fill:#fff"></path><rect x="184.15" y="192.31" width="61.71" height="12.31" transform="translate(430.01 396.92) rotate(180)" style="opacity:0.4;isolation:isolate"></rect><path d="M199.76,195.88h1.93a2.22,2.22,0,1,1,0,4.43h-1.93Zm1.89,3.73a1.52,1.52,0,1,0,0-3h-1.07v3Z" style="fill:#fff"></path><path d="M208.29,199.62v.69H205v-4.43h3.23v.69h-2.41v1.15h2.14v.68h-2.14v1.22Z" style="fill:#fff"></path><path d="M209.2,195.88H210v3.73h2.31v.7H209.2Z" style="fill:#fff"></path><path d="M215.89,199.28h-2.21l-.44,1h-.85l2-4.43h.81l2,4.43h-.86Zm-.27-.64-.84-1.93-.83,1.93Z" style="fill:#fff"></path><path d="M219.39,198.75v1.56h-.82v-1.55l-1.74-2.88h.88L219,198l1.3-2.16h.81Z" style="fill:#fff"></path><path d="M224.91,199.62v.69H221.6v-4.43h3.22v.69h-2.4v1.15h2.13v.68h-2.13v1.22Z" style="fill:#fff"></path><path d="M225.83,195.88h1.93a2.22,2.22,0,1,1,0,4.43h-1.93Zm1.89,3.73a1.52,1.52,0,1,0,0-3h-1.07v3Z" style="fill:#fff"></path><rect x="79.64" y="207.82" width="14.8" height="12.31" style="opacity:0.2;isolation:isolate"></rect><path d="M87.73,214.81l1.72,1.2.51-.36a.39.39,0,0,0,.07-.59l-1-1.14Z" style="fill:#fff"></path><path d="M91.27,211.11h-.45a1.37,1.37,0,0,0-.78.25l-2.15,1.52-4.8-.89a.66.66,0,0,0-.49.11l-.73.52,4.21,1.54-2,1.44-1.49,0a.86.86,0,0,0-.51.16l-.67.48,2,1,7.26-5.14,1.44-1,.58-.41A2.94,2.94,0,0,0,91.27,211.11Z" style="fill:#fff"></path><rect x="98.89" y="207.82" width="80.97" height="12.31" style="opacity:0.2;isolation:isolate"></rect><path d="M152.83,213H104.17a1,1,0,0,1,0-2h48.66a1,1,0,1,1,0,2Z" style="fill:#fff"></path><path d="M121.58,217H104.17a1,1,0,0,1,0-2h17.41a1,1,0,0,1,0,2Z" style="fill:#fff"></path><rect x="184.15" y="207.82" width="61.71" height="12.31" transform="translate(430.01 427.94) rotate(180)" style="opacity:0.4;isolation:isolate"></rect><path d="M196.89,213.6a2.25,2.25,0,0,1,2.37-2.27,2.22,2.22,0,0,1,1.74.74l-.53.5a1.54,1.54,0,0,0-1.18-.52,1.56,1.56,0,1,0,1.18,2.58l.53.51a2.23,2.23,0,0,1-1.75.74A2.25,2.25,0,0,1,196.89,213.6Z" style="fill:#fff"></path><path d="M204.57,214.79h-2.21l-.44,1h-.85l2-4.43h.81l2,4.43H205Zm-.28-.64-.83-1.93-.83,1.93Z" style="fill:#fff"></path><path d="M210.36,211.39v4.43h-.68l-2.44-3v3h-.81v-4.43h.67l2.44,3v-3Z" style="fill:#fff"></path><path d="M211.23,213.6a2.39,2.39,0,0,1,4.12-1.53l-.53.5a1.56,1.56,0,0,0-1.18-.52,1.56,1.56,0,1,0,0,3.11,1.53,1.53,0,0,0,1.18-.53l.53.51a2.39,2.39,0,0,1-4.12-1.54Z" style="fill:#fff"></path><path d="M219.45,215.13v.69h-3.31v-4.43h3.22v.69H217v1.15h2.13v.68H217v1.22Z" style="fill:#fff"></path><path d="M220.37,211.39h.82v3.73h2.31v.7h-3.13Z" style="fill:#fff"></path><path d="M227.47,215.13v.69h-3.32v-4.43h3.23v.69H225v1.15h2.14v.68H225v1.22Z" style="fill:#fff"></path><path d="M228.38,211.39h1.93a2.22,2.22,0,1,1,0,4.43h-1.93Zm1.9,3.73a1.52,1.52,0,1,0,0-3H229.2v3Z" style="fill:#fff"></path></g><g id="freepik--Character--inject-111"><rect x="288.86" y="269.63" width="2.77" height="45.23" style="fill:#263238"></rect><rect x="288.86" y="269.63" width="2.77" height="45.23" style="fill:#fff;opacity:0.4"></rect><rect x="298.86" y="269.63" width="2.77" height="45.23" style="fill:#263238"></rect><rect x="298.86" y="269.63" width="2.77" height="45.23" style="fill:#fff;opacity:0.4"></rect><path d="M281.12,307.21h4.09a1.12,1.12,0,0,1,1.12,1.12v4a0,0,0,0,1,0,0H280a0,0,0,0,1,0,0v-4A1.12,1.12,0,0,1,281.12,307.21Z" style="fill:#263238"></path><path d="M281.12,307.21h4.09a1.12,1.12,0,0,1,1.12,1.12v4a0,0,0,0,1,0,0H280a0,0,0,0,1,0,0v-4A1.12,1.12,0,0,1,281.12,307.21Z" style="fill:#fff;opacity:0.2"></path><path d="M288.2,309.37h4.09a1.12,1.12,0,0,1,1.12,1.12v4a0,0,0,0,1,0,0h-6.32a0,0,0,0,1,0,0v-4A1.12,1.12,0,0,1,288.2,309.37Z" style="fill:#263238"></path><path d="M288.2,309.37h4.09a1.12,1.12,0,0,1,1.12,1.12v4a0,0,0,0,1,0,0h-6.32a0,0,0,0,1,0,0v-4A1.12,1.12,0,0,1,288.2,309.37Z" style="fill:#fff;opacity:0.2"></path><path d="M297.72,413.12a3.86,3.86,0,1,1-3.86-3.86A3.85,3.85,0,0,1,297.72,413.12Z" style="fill:#263238"></path><polygon points="305.45 406.21 269.32 406.21 269.32 409.63 269.32 411.04 269.32 416.82 271.71 416.82 273.3 411.04 274.78 411.04 274.78 416.97 277.18 416.97 278.8 411.04 305.45 411.04 305.45 406.21" style="fill:#263238"></polygon><polygon points="274.86 406.21 274.86 416.97 277.18 416.97 278.8 411.04 305.45 411.04 305.45 406.21 274.86 406.21" style="fill:#fff;opacity:0.2"></polygon><path d="M269.25,310.75H300.7a0,0,0,0,1,0,0v97.12a0,0,0,0,1,0,0H269.25a7.08,7.08,0,0,1-7.08-7.08v-83A7.08,7.08,0,0,1,269.25,310.75Z" style="fill:#407BFF"></path><path d="M269.25,310.75H300.7a0,0,0,0,1,0,0v97.12a0,0,0,0,1,0,0H269.25a7.08,7.08,0,0,1-7.08-7.08v-83A7.08,7.08,0,0,1,269.25,310.75Z" style="fill:#fff;opacity:0.4"></path><path d="M267.8,402.79h0a1.52,1.52,0,0,1-1.52-1.52V317.2a1.52,1.52,0,0,1,1.52-1.52h0a1.52,1.52,0,0,1,1.52,1.52v84.07A1.52,1.52,0,0,1,267.8,402.79Z" style="opacity:0.2;isolation:isolate"></path><path d="M278.8,313.54h20.05a0,0,0,0,1,0,0v90.69a0,0,0,0,1,0,0H278.8a5,5,0,0,1-5-5V318.56A5,5,0,0,1,278.8,313.54Z" style="opacity:0.2;isolation:isolate"></path><path d="M298.78,309.32h2.82a1.4,1.4,0,0,1,1.4,1.4v98.4a0,0,0,0,1,0,0h-5.62a0,0,0,0,1,0,0v-98.4A1.4,1.4,0,0,1,298.78,309.32Z" style="fill:#263238"></path><path d="M306.72,413.12a3.86,3.86,0,1,1-3.86-3.86A3.85,3.85,0,0,1,306.72,413.12Z" style="fill:#263238"></path><path d="M306.72,413.12a3.86,3.86,0,1,1-3.86-3.86A3.85,3.85,0,0,1,306.72,413.12Z" style="fill:#fff;opacity:0.4"></path><path d="M305,413.12a2.14,2.14,0,1,1-2.14-2.15A2.14,2.14,0,0,1,305,413.12Z" style="fill:#407BFF"></path><path d="M298.78,309.32h2.82a1.4,1.4,0,0,1,1.4,1.4v98.4a0,0,0,0,1,0,0h-5.62a0,0,0,0,1,0,0v-98.4A1.4,1.4,0,0,1,298.78,309.32Z" style="fill:#fff;opacity:0.2"></path><rect x="287.78" y="268.31" width="15.22" height="4.52" rx="1.2" style="fill:#263238"></rect><rect x="287.78" y="268.31" width="15.22" height="4.52" rx="1.2" style="fill:#fff;opacity:0.2"></rect><polygon points="399.96 407.55 321.47 407.55 322.38 412.19 323.18 412.19 323.89 416.97 328.15 416.97 328.86 412.19 344.85 412.19 345.56 416.97 349.82 416.97 350.53 412.19 371.04 412.19 371.75 416.97 376.01 416.97 376.72 412.19 392.71 412.19 393.42 416.97 397.68 416.97 398.39 412.19 399.06 412.19 399.96 407.55" style="fill:#263238"></polygon><rect x="316.41" y="344.7" width="88.75" height="65.46" rx="4.55" style="fill:#407BFF"></rect><path d="M405.16,348.81v57.24a4.1,4.1,0,0,1-4.1,4.11H374a4.1,4.1,0,0,0,4.1-4.11V348.81a4.1,4.1,0,0,0-4.1-4.11h27.09A4.1,4.1,0,0,1,405.16,348.81Z" style="opacity:0.2;isolation:isolate"></path><path d="M393,349v50.73a.44.44,0,0,1-.45.45.45.45,0,0,1-.45-.45V349a4.31,4.31,0,0,0-4.07-4.29h2.71A5.19,5.19,0,0,1,393,349Z" style="fill:#263238"></path><ellipse cx="358.1" cy="360.46" rx="4.36" ry="5.05" style="fill:#fff;opacity:0.2"></ellipse><path d="M361,360.46a3,3,0,1,1-2.93-3.39A3.19,3.19,0,0,1,361,360.46Z" style="fill:#fff;opacity:0.2"></path><polygon points="353.38 366.94 364.15 364.38 364.63 366.16 353.74 368.55 353.38 366.94" style="fill:#fff;opacity:0.2"></polygon><path d="M356.5,383.58l1.9,9.9a1.21,1.21,0,0,1-1.56,1.39c-2.41-.75-6.41-2.17-8.93-3.08a1.48,1.48,0,0,1-.49-2.5l7.08-6.38A1.21,1.21,0,0,1,356.5,383.58Z" style="fill:#fff;opacity:0.2"></path><path d="M350.14,389l3.11-2.66a1.22,1.22,0,0,1,2,.67l.88,4.06a1.21,1.21,0,0,1-1.59,1.4l-4-1.39A1.23,1.23,0,0,1,350.14,389Z" style="fill:#fff;opacity:0.2"></path><path d="M333.05,379.74c0,3.19-2.27,5.77-5.08,5.77s-5.08-2.58-5.08-5.77S325.17,374,328,374,333.05,376.55,333.05,379.74Z" style="fill:#fff;opacity:0.2"></path><rect x="319.93" y="378.01" width="16.09" height="3.45" style="fill:#407BFF"></rect><rect x="319.93" y="378.01" width="16.09" height="3.45" style="fill:#fff;opacity:0.4"></rect><rect x="327.28" y="394.04" width="8.72" height="8.72" rx="1.78" transform="translate(176.33 -96.16) rotate(22.34)" style="opacity:0.2;isolation:isolate"></rect><rect x="324.18" y="399.97" width="12.61" height="1.47" transform="translate(177.11 -95.54) rotate(22.34)" style="fill:#407BFF"></rect><rect x="324.18" y="399.97" width="12.61" height="1.47" transform="translate(177.11 -95.54) rotate(22.34)" style="fill:#fff;opacity:0.4"></rect><polygon points="330.85 357.07 347.54 348.12 348.97 352.6 331.64 361.22 330.85 357.07" style="opacity:0.2;isolation:isolate"></polygon><rect x="362.46" y="373.49" width="10.14" height="4.52" rx="1.7" style="opacity:0.2;isolation:isolate"></rect><rect x="340.51" y="370.17" width="10.14" height="4.52" rx="1.7" transform="translate(146.88 -95.17) rotate(19.84)" style="fill:#fff;opacity:0.4"></rect><path d="M374.12,400.22a4.75,4.75,0,1,1-4.75-4.74A4.75,4.75,0,0,1,374.12,400.22Z" style="opacity:0.2;isolation:isolate"></path><circle cx="369.37" cy="400.16" r="3.01" style="fill:#fff;opacity:0.2"></circle><path d="M314.17,227.94s1.25-6.34,4.24-5.56,3.95,3,6.33,1.37,5.52-2.68,7-1.44.71,4.67,3.88,5.63,4.46.16,6.18,4.31-2.71,5.9,0,9.08,4.89,3.38,3.91,6-4.64,6.43-3.91,8.67-4.13,11.36-9.33,11.7-8.65,7.39-8.29,10.22-1.42,3.7-4,4.36-4.85,4-4,5-2.5,4-2.5,4,2.58-1.59,0-4.16-5.56-3.88-3.38-7.58c0,0-5.14-.92-4.75-5.27s2-6.85-.79-8.67-5.34-7.15-2.77-9,3.36-9,1.78-14.13,2.77-9.6,3.36-8.86S305.7,225.33,314.17,227.94Z" style="fill:#263238"></path><path d="M305.18,260.24l5.93-3.26a30.16,30.16,0,0,1,4.28,0c.66.2-2.33-10.62-2.27-10.85s-3-.86-4.09,0-.1,6.84-.1,6.84l-7,4.4Z" style="fill:#b97964"></path><path d="M305.18,260.24l5.93-3.26a30.16,30.16,0,0,1,4.28,0c.66.2-2.33-10.62-2.27-10.85s-3-.86-4.09,0-.1,6.84-.1,6.84l-7,4.4Z" style="opacity:0.2;isolation:isolate"></path><path d="M321.83,262.62s-16.8.63-18.1.52,5-4.07,5-4.07l-4.22-4.2s-13.19,5.56-14.11,9.7,20.23,10.82,28.6,10.87S321.83,262.62,321.83,262.62Z" style="fill:#407BFF"></path><path d="M320.59,275.25a5.85,5.85,0,0,1-1.58.19,52.53,52.53,0,0,1-11.93-2.08c-8.5-2.32-17.28-6.09-16.67-8.79.92-4.14,14.11-9.7,14.11-9.7l4.22,4.2s-6.32,4-5,4.07,18.1-.52,18.1-.52S326.62,273.73,320.59,275.25Z" style="fill:#fff;opacity:0.2"></path><path d="M320.59,275.25a5.85,5.85,0,0,1-1.58.19,52.53,52.53,0,0,1-11.93-2.08c2.69-3.33,11.33-2.84,11.33-2.84S319.61,273.14,320.59,275.25Z" style="opacity:0.2;isolation:isolate"></path><polygon points="307.96 409.26 314.15 407.96 313.36 399.14 312.63 391.05 305.04 391.39 306.58 400.85 307.96 409.26" style="fill:#b97964"></polygon><path d="M316.18,405.65c-.05-.7-8.57.2-8.57.2s-5,5.57-10.1,7-2.07,4.36,3.64,4.12l14.12-.59C319.33,416.2,316.65,412.85,316.18,405.65Z" style="fill:#263238"></path><path d="M303.1,408.25a1.13,1.13,0,0,1-.67-.18.83.83,0,0,1-.25-.92.93.93,0,0,1,.44-.61,3.45,3.45,0,0,1,1.81-.3c-.68-.34-1.25-.75-1.3-1.19s.16-.55.54-.76a1.33,1.33,0,0,1,1.12-.07c1.19.43,2,2.41,2,2.49a.27.27,0,0,1,0,.2l0,0h0a.24.24,0,0,1-.09.08A10.19,10.19,0,0,1,303.1,408.25Zm1-1.53a2.46,2.46,0,0,0-1.22.23.5.5,0,0,0-.22.3c0,.22,0,.36.07.43.4.31,1.91-.21,3.14-.78A9.91,9.91,0,0,0,304.09,406.72Zm.22-2.11a.93.93,0,0,0-.41.11c-.09,0-.3.17-.29.28,0,.38,1.26,1,2.53,1.4a3.71,3.71,0,0,0-1.52-1.73A.81.81,0,0,0,304.31,404.61Z" style="fill:#577afa"></path><polygon points="306.63 401.04 313.4 399.31 312.65 391.14 305.05 391.44 306.63 401.04" style="opacity:0.2;isolation:isolate"></polygon><path d="M282.42,328.48c1.66-9.42,36.64-9.54,59.57-12.65l25.17,29.8s-31.29-8.12-62.1-8.12c0,0,6.73,17.67,9,57.61L303,397.29S280.75,337.91,282.42,328.48Z" style="fill:#263238"></path><path d="M282.42,328.48c1.66-9.42,36.64-9.54,59.57-12.65l25.17,29.8s-31.29-8.12-62.1-8.12c0,0,6.73,17.67,9,57.61L303,397.29S280.75,337.91,282.42,328.48Z" style="opacity:0.2;isolation:isolate"></path><polygon points="334.28 253.98 353.83 253.98 367.16 304.36 330.3 308.52 331.76 293.12 326.23 286.26 334.28 253.98" style="fill:#407BFF"></polygon><polygon points="334.28 253.98 353.83 253.98 367.16 304.36 330.3 308.52 331.76 293.12 326.23 286.26 334.28 253.98" style="fill:#fff;opacity:0.2"></polygon><polygon points="243.86 402.35 248.74 406.36 255.12 400.22 260.97 394.58 255.94 388.88 249.54 396.01 243.86 402.35" style="fill:#b97964"></polygon><path d="M251.59,404.67c.38-.59-7-4.93-7-4.93s-7.36,1.48-12.27-.39-4.26,2.28.47,5.48l11.71,7.92C247.85,415,247.69,410.74,251.59,404.67Z" style="fill:#263238"></path><path d="M243.2,400.14h0c-.63-.1-3.75-.62-4.07-1.7a.85.85,0,0,1,.34-.89,1,1,0,0,1,.72-.22,3.35,3.35,0,0,1,1.64.84c-.35-.68-.57-1.35-.34-1.73s.45-.36.89-.29a1.34,1.34,0,0,1,.94.6c.69,1.06.17,3.12.15,3.21v0h0a.22.22,0,0,1-.1.11l-.06,0Zm-3.13-2.33a.42.42,0,0,0-.31.11c-.16.14-.23.28-.2.39.15.48,1.67,1,3,1.23-.67-.71-1.74-1.68-2.43-1.73Zm2-1.2c-.1,0-.19,0-.22.08-.2.32.43,1.53,1.19,2.62a3.66,3.66,0,0,0-.18-2.29.87.87,0,0,0-.62-.39Z" style="fill:#577afa"></path><polygon points="249.42 396.16 255.01 400.35 260.91 394.64 255.92 388.91 249.42 396.16" style="opacity:0.2;isolation:isolate"></polygon><path d="M338.63,302.61c.29,6.49,1,14.84,1,14.84-29.09,7.16-41,14.8-46.42,21.29-10.17,12.2-39.46,50.69-39.46,50.69l9.69,7.09C291.68,369.31,313,349.81,313,349.81c28.86.05,61.16-1.92,67.31-8,9-8.93,1.52-34.19-8.76-46.17Z" style="fill:#263238"></path><polygon points="266.78 394.24 255.72 385.95 251.78 390.68 261.28 397.75 266.78 394.24" style="fill:#407BFF"></polygon><polygon points="370.59 293.12 372.18 297.68 340.18 306.14 338.3 300.74 370.59 293.12"></polygon><rect x="360.77" y="294.38" width="1.64" height="8.35" transform="translate(792.33 483.9) rotate(163.74)" style="fill:#263238"></rect><rect x="346.63" y="298.32" width="7.24" height="5.49" transform="translate(763.2 507.94) rotate(165.93)" style="fill:#fff"></rect><rect x="341" y="298.92" width="1.64" height="8.35" transform="translate(754.88 498.26) rotate(163.73)" style="fill:#263238"></rect><path d="M338.3,300.74s-9.23-20.25-19.89-32.51c0,0,3.33-5.85,16.41-9.16s24.55,3.69,24.55,3.69l11.79,32S351.45,300.29,338.3,300.74Z" style="fill:#407BFF"></path><path d="M347.64,256s-.85,22.49,0,26.84,16.09,25.72,16.09,25.72l16.81-6.33-11.08-16.62S367.56,259.77,347.64,256Z" style="fill:#407BFF"></path><path d="M324.2,261.64s4.88,23.2,7.56,31.48v17.77H328l1.92-17.77S306,267.37,324.2,261.64Z" style="fill:#407BFF"></path><path d="M347.64,256s-.85,22.49,0,26.84,16.09,25.72,16.09,25.72l16.81-6.33-11.08-16.62S367.56,259.77,347.64,256Z" style="fill:#fff;opacity:0.4"></path><path d="M324.2,261.64s4.88,23.2,7.56,31.48v17.77H328l1.92-17.77S306,267.37,324.2,261.64Z" style="fill:#fff;opacity:0.4"></path><path d="M347.27,279.46s-3.91-15.83-4.12-18.54c-.1-1.4,1.77-4.47,3.62-7.12a5.18,5.18,0,0,1,7.93-.7c2.57,2.63,5,5.92,3.36,7.82,0,0-5-2.63-7.19-1.85S347.27,279.46,347.27,279.46Z" style="fill:#407BFF"></path><path d="M327.81,277.88s-4.93-10.17-6-13.57,3.48-11.58,6-12.86,8.94,4.51,8.94,4.51S323.85,259.32,327.81,277.88Z" style="fill:#407BFF"></path><path d="M347.27,279.46s-3.91-15.83-4.12-18.54c-.1-1.4,1.77-4.47,3.62-7.12a5.18,5.18,0,0,1,7.93-.7c2.57,2.63,5,5.92,3.36,7.82,0,0-5-2.63-7.19-1.85S347.27,279.46,347.27,279.46Z" style="fill:#fff;opacity:0.2"></path><path d="M327.81,277.88s-4.93-10.17-6-13.57,3.48-11.58,6-12.86,8.94,4.51,8.94,4.51S323.85,259.32,327.81,277.88Z" style="fill:#fff;opacity:0.2"></path><path d="M334.84,268.94s-4.78.68-5.62-2.87c0,0,1.09-1,0-3.31a11.86,11.86,0,0,0-2-2.92,28.63,28.63,0,0,0-3-2.84l6.14-7.85a17.84,17.84,0,0,0,2.15,4.73c1.47,2.29,3.81,4.56,7.3,4.68C339.79,258.56,340.25,262.79,334.84,268.94Z" style="fill:#b97964"></path><path d="M332.49,253.88a42.34,42.34,0,0,1-3.24,8.88,11.86,11.86,0,0,0-2-2.92,28.63,28.63,0,0,0-3-2.84l6.14-7.85A17.84,17.84,0,0,0,332.49,253.88Z" style="opacity:0.2;isolation:isolate"></path><path d="M322.65,230.54c-8.5.64-10.89,5.39-10.86,14.2,0,11,3.06,18.6,13.51,15.46C339.5,256,336.77,229.48,322.65,230.54Z" style="fill:#b97964"></path><path d="M317.25,243.85a17.87,17.87,0,0,1-2.21,3.71,2.37,2.37,0,0,0,2.32.8Z" style="fill:#a24e3f"></path><path d="M322.4,242.77c0,.69.45,1.24.91,1.22s.82-.61.78-1.31-.44-1.25-.91-1.22S322.37,242.07,322.4,242.77Z" style="fill:#263238"></path><path d="M323.38,241.48l-1.55-.52S322.65,242.2,323.38,241.48Z" style="fill:#263238"></path><path d="M313.7,243.07c0,.7.44,1.24.91,1.22s.81-.61.78-1.31-.44-1.25-.91-1.22S313.66,242.37,313.7,243.07Z" style="fill:#263238"></path><path d="M314.68,241.78l-1.56-.52S314,242.5,314.68,241.78Z" style="fill:#263238"></path><path d="M325.83,238.26a.38.38,0,0,1-.26-.11,4.11,4.11,0,0,0-3.45-.91.36.36,0,0,1-.43-.28.37.37,0,0,1,.29-.43,4.74,4.74,0,0,1,4.11,1.12.35.35,0,0,1,0,.51A.35.35,0,0,1,325.83,238.26Z" style="fill:#263238"></path><path d="M312.51,238.31a.37.37,0,0,1-.29-.14.37.37,0,0,1,.06-.51,4.39,4.39,0,0,1,3.66-1,.36.36,0,0,1,.25.45.35.35,0,0,1-.45.25,3.6,3.6,0,0,0-3,.89A.37.37,0,0,1,312.51,238.31Z" style="fill:#263238"></path><path d="M333,244.17s-4.5-6.69-4.3-12.13c0,0-17.36-5.61-16.91,11.55,0,0-2.79-15.06,11.8-16.5S339.74,247,332.67,254C332.67,254,335.8,248.35,333,244.17Z" style="fill:#263238"></path><path d="M331.76,246.07a3.75,3.75,0,0,1,3.76-3.71c2.66.09,4.32,5.4-2.13,7.19C332.46,249.81,331.86,248.93,331.76,246.07Z" style="fill:#b97964"></path><path d="M318.41,253.68a.31.31,0,0,1-.13,0,.36.36,0,0,1-.21-.47s1.77-4.38,5.86-3.93a.35.35,0,0,1,.32.4.37.37,0,0,1-.4.32c-3.55-.41-5.09,3.44-5.1,3.48A.38.38,0,0,1,318.41,253.68Z" style="fill:#263238"></path><path d="M317.86,317.16l5.77-5.07s8.92,2.87,11.06,4.6,9.52,6.62,9.52,6.62L336.75,327s-6.6-6.87-8.87-7.46S317.86,317.16,317.86,317.16Z" style="fill:#407BFF"></path><path d="M317.86,317.16l5.77-5.07s8.92,2.87,11.06,4.6,9.52,6.62,9.52,6.62L336.75,327s-6.6-6.87-8.87-7.46S317.86,317.16,317.86,317.16Z" style="fill:#fff;opacity:0.4"></path><path d="M324.74,316.16l5.06-1.87s9.45,7.83,8.5,7.83-9.09,4-9.09,4L322.32,318A7,7,0,0,1,324.74,316.16Z" style="fill:#407BFF"></path><path d="M343.15,308.52l-4.85,5.16a32.59,32.59,0,0,0-3.61,0c-.77.13-6.81,3.68-6.81,3.68s4.1,4.49,4.61,4.76,7.25-1.71,7.31-2.51.11-2.76.11-2.76,6.37-5.72,6.06-6S343.15,308.52,343.15,308.52Z" style="fill:#b97964"></path><path d="M355.45,261.85c-5.18,2.13.17,26.8-.11,28.45s-17,22-17,22l5.26,3.89S359.05,299.92,362,295s2.4-23.44,1.6-25.51S358.09,260.76,355.45,261.85Z" style="fill:#407BFF"></path><path d="M355.45,261.85c-5.18,2.13.17,26.8-.11,28.45s-17,22-17,22l5.26,3.89S359.05,299.92,362,295s2.4-23.44,1.6-25.51S358.09,260.76,355.45,261.85Z" style="fill:#fff;opacity:0.2"></path><polygon points="300.75 393.54 314.15 391.26 314.15 396.37 302.38 398.17 300.75 393.54" style="fill:#407BFF"></polygon></g></svg>